<?xml version="1.0" encoding="utf-8"?>
<!-- Generator: Adobe Illustrator 15.1.0, SVG Export Plug-In . SVG Version: 6.00 Build 0)  -->
<!DOCTYPE svg PUBLIC "-//W3C//DTD SVG 1.1//EN" "http://www.w3.org/Graphics/SVG/1.1/DTD/svg11.dtd">
<svg version="1.1" id="Layer_1" xmlns="http://www.w3.org/2000/svg" xmlns:xlink="http://www.w3.org/1999/xlink" x="0px" y="0px"
	 width="32px" height="32px" viewBox="0 0 32 32" enable-background="new 0 0 32 32" xml:space="preserve">
<path opacity="0.25" fill="#C42821" enable-background="new    " d="M16,0C7.164,0,0,7.164,0,16c0,8.836,7.164,16,16,16
	c8.836,0,16-7.164,16-16C32,7.164,24.836,0,16,0 M16,4c6.627,0,12,5.373,12,12c0,6.627-5.373,12-12,12C9.373,28,4,22.627,4,16
	C4,9.373,9.373,4,16,4"/>
<path fill="#C42821" d="M16,0c8.836,0,16,7.164,16,16h-4c0-6.627-5.373-12-12-12V0z">
<animateTransform  fill="remove" type="rotate" repeatCount="indefinite" restart="always" to="360 16 16" calcMode="linear" additive="replace" accumulate="none" attributeName="transform" from="0 16 16" dur="0.8s">
		</animateTransform>
</path>
</svg>
